<?xml version="1.0" standalone="no"?>
<!DOCTYPE svg PUBLIC "-//W3C//DTD SVG 20010904//EN"
 "http://www.w3.org/TR/2001/REC-SVG-20010904/DTD/svg10.dtd">
<svg version="1.0" xmlns="http://www.w3.org/2000/svg"
 width="720.000000pt" height="720.000000pt" viewBox="0 0 720.000000 720.000000"
 preserveAspectRatio="xMidYMid meet">
<metadata>
Created by potrace 1.14, written by Peter Selinger 2001-2017
</metadata>
<g transform="translate(0.000000,720.000000) scale(0.100000,-0.100000)"
fill="#000000" stroke="none">
<path d="M2776 5613 c-3 -21 -10 -78 -15 -128 -6 -49 -20 -165 -31 -257 -12
-92 -20 -182 -18 -200 2 -18 20 112 41 290 22 178 37 326 34 328 -3 3 -8 -12
-11 -33z"/>
<path d="M1143 5172 c-47 -43 -83 -88 -103 -126 -38 -73 -38 -95 -6 -544 29
-389 56 -893 57 -1035 l1 -98 -41 -39 c-23 -22 -41 -45 -41 -51 0 -5 -4 -8 -8
-5 -4 2 -9 -10 -10 -27 -2 -18 -6 -33 -10 -34 -4 -2 -5 -25 -4 -52 3 -35 8
-50 20 -54 11 -2 22 -24 30 -63 16 -70 66 -222 91 -279 38 -84 40 -82 -36 -88
-38 -4 -115 -15 -173 -26 -58 -12 -112 -21 -122 -21 -12 0 -19 17 -29 72 -10
58 -14 67 -20 46 -16 -62 -21 -192 -9 -275 12 -81 16 -91 71 -167 141 -195
165 -226 182 -232 15 -5 17 -20 17 -135 0 -117 2 -131 21 -150 16 -16 76 -49
91 -49 2 0 26 -7 53 -16 61 -18 216 -51 282 -59 26 -3 72 -10 102 -16 30 -5
72 -9 93 -9 22 0 37 -3 35 -7 -3 -5 21 -9 52 -10 31 -1 135 -9 231 -17 722
-64 1962 -80 2750 -36 85 4 182 9 215 10 33 1 78 3 100 5 22 3 103 9 180 15
442 34 802 94 937 156 68 32 85 58 70 105 -13 40 -24 183 -16 204 4 8 18 15
31 15 30 0 27 -3 133 152 79 116 94 145 65 134 -17 -6 -22 29 -5 37 6 3 5 4
-2 3 -7 -1 -15 -11 -16 -22 -2 -10 -7 -23 -12 -27 -4 -5 -5 3 -3 17 3 15 1 26
-5 26 -17 0 -24 -18 -10 -23 8 -3 6 -6 -4 -6 -12 -1 -18 6 -18 19 0 11 5 20
11 20 20 0 -12 30 -55 51 -50 24 -56 24 -56 -3 0 -21 -14 -17 -16 5 -4 48 -7
51 -14 22 l-8 -30 -1 33 c-1 22 4 32 14 32 8 0 15 5 15 11 0 5 -4 8 -9 5 -11
-7 -38 50 -42 89 -5 47 -26 65 -77 65 -51 0 -51 -12 3 128 39 100 89 278 86
302 -3 18 -7 80 -9 132 -3 65 -68 119 -237 195 -378 171 -1361 293 -2360 293
-687 0 -1339 -56 -1870 -160 -82 -17 -153 -30 -156 -30 -4 0 -7 82 -8 182 -1
100 -4 185 -7 189 -2 4 -5 88 -6 188 -1 133 2 184 12 196 16 20 15 19 -72 -11
-40 -14 -80 -28 -90 -31 -29 -9 -45 37 -62 177 -10 74 -37 281 -62 460 -24
179 -44 328 -44 333 0 16 -18 4 -87 -61z m2770 -1931 l292 -289 -77 -76 c-42
-42 -83 -76 -92 -76 -9 0 -16 -5 -16 -11 0 -5 6 -7 13 -3 6 4 4 -2 -7 -12 -13
-14 -20 -15 -23 -6 -3 6 -9 9 -14 6 -6 -3 -17 0 -25 7 -18 15 -31 4 -16 -14
12 -14 7 -27 -11 -27 -5 0 -7 6 -4 14 3 8 1 17 -6 20 -22 8 16 26 48 23 26 -4
30 -1 31 22 1 14 -1 20 -3 14 -3 -8 -22 -13 -44 -13 -21 0 -39 -4 -39 -10 0
-5 -25 -10 -55 -10 -30 0 -55 -3 -55 -8 0 -4 -11 -20 -25 -35 -25 -26 -27 -26
-55 -12 -16 8 -36 15 -45 15 -10 0 -13 5 -9 13 4 6 -4 2 -18 -10 -13 -13 -31
-23 -39 -23 -8 0 -68 52 -134 115 -138 131 -112 123 -320 100 -157 -18 -145
-18 -145 -2 -1 15 571 576 588 577 7 0 144 -130 305 -289z m31 -553 c-3 -4
-11 -8 -17 -8 -7 0 -6 4 3 10 11 7 11 10 2 10 -7 0 -10 5 -6 11 4 8 9 7 15 -2
4 -7 5 -17 3 -21z m2296 -279 c0 -5 -4 -9 -10 -9 -5 0 -10 7 -10 16 0 8 5 12
10 9 6 -3 10 -10 10 -16z m-3125 -749 c79 -6 68 -7 -85 -8 -96 0 -231 6 -300
13 l-125 14 210 -6 c116 -3 251 -9 300 -13z"/>
<path d="M4106 2883 c-6 -14 -5 -15 5 -6 7 7 10 15 7 18 -3 3 -9 -2 -12 -12z"/>
<path d="M3712 2818 c-17 -17 -15 -38 4 -38 13 0 14 3 5 13 -8 10 -7 17 1 25
7 7 10 12 7 12 -3 0 -10 -5 -17 -12z"/>
<path d="M4030 2820 c0 -5 5 -10 10 -10 6 0 10 5 10 10 0 6 -4 10 -10 10 -5 0
-10 -4 -10 -10z"/>
<path d="M2702 4940 c0 -14 2 -19 5 -12 2 6 2 18 0 25 -3 6 -5 1 -5 -13z"/>
<path d="M2692 4860 c0 -14 2 -19 5 -12 2 6 2 18 0 25 -3 6 -5 1 -5 -13z"/>
<path d="M5471 4814 c0 -11 3 -14 6 -6 3 7 2 16 -1 19 -3 4 -6 -2 -5 -13z"/>
<path d="M2682 4790 c0 -19 2 -27 5 -17 2 9 2 25 0 35 -3 9 -5 1 -5 -18z"/>
<path d="M5460 4759 c0 -14 -24 -178 -39 -261 -4 -26 -5 -52 -1 -58 4 -6 12
22 18 62 18 114 33 260 27 266 -3 3 -5 -1 -5 -9z"/>
<path d="M2672 4700 c0 -14 2 -19 5 -12 2 6 2 18 0 25 -3 6 -5 1 -5 -13z"/>
<path d="M6221 2574 c0 -11 3 -14 6 -6 3 7 2 16 -1 19 -3 4 -6 -2 -5 -13z"/>
</g>
</svg>
